<?xml version="1.0"?>
<svg xmlns="http://www.w3.org/2000/svg" xmlns:xlink="http://www.w3.org/1999/xlink" version="1.1" id="Capa_1" x="0px" y="0px" viewBox="0 0 482.6 482.6" style="enable-background:new 0 0 482.6 482.6;" xml:space="preserve" width="512px" height="512px" class="hovered-paths"><g><path style="fill:#B3B3B3;" d="M30.552,452.5l-14.944-36.16L113,353.324l29.76,31.512L30.552,452.5z" data-original="#B3B3B3"/><path style="fill:#D3D3D3;" d="M0,482.1c104.626-134.844,298.754-159.341,433.599-54.716c18.041,13.998,34.475,29.953,49.001,47.572  L0,482.1z" data-original="#D3D3D3"/><path style="fill:#A33327" d="M241.16,20.5h115v134h-115V20.5z" data-original="#168DE2" class="" data-old_color="#168DE2"/><path style="fill:#A33327" d="M356.16,64.5v90h-57.496v44h114.992v-134H356.16z" data-original="#0D70B1" class="" data-old_color="#0D70B1"/><path style="fill:#454545;" d="M266.16,475.5l6-32.496h116l6,32.496H266.16z" data-original="#454545" class=""/><ellipse transform="matrix(-0.5433 -0.8396 0.8396 -0.5433 -223.8655 647.8589)" style="fill:#D3D3D3;" cx="64.294" cy="384.824" rx="12.504" ry="58" data-original="#D3D3D3"/><g>
	<path style="fill:#FFB546" d="M143.696,112.5h-16v-24c0-13.255-10.745-24-24-24v-16c13.255,0,24-10.745,24-24v-24h16v24   c0,13.255,10.745,24,24,24v16c-13.255,0-24,10.745-24,24V112.5z M127.696,56.5c3.029,2.278,5.722,4.971,8,8   c2.276-3.031,4.969-5.724,8-8c-3.031-2.276-5.724-4.969-8-8c-2.285,3.031-4.986,5.724-8.024,8H127.696z" data-original="#FFB546" class="hovered-path active-path"/>
	<path style="fill:#FFB546" d="M421.656,292.5h-16c0-13.255-10.745-24-24-24v-16c13.255,0,24-10.745,24-24h16   c0,13.255,10.745,24,24,24v16C432.401,268.5,421.656,279.245,421.656,292.5z M405.656,260.5c3.031,2.276,5.724,4.969,8,8   c2.278-3.029,4.971-5.722,8-8c-3.03-2.277-5.723-4.97-8-8c-2.285,3.03-4.987,5.724-8.024,8H405.656z" data-original="#FFB546" class="hovered-path active-path"/>
</g><g>
	<path style="fill:#D95354;" d="M53.16,283.5h16v16h-16V283.5z" data-original="#D95354"/>
	<path style="fill:#D95354;" d="M21.16,283.5h16v16h-16V283.5z" data-original="#D95354"/>
	<path style="fill:#D95354;" d="M37.16,267.5h16v16h-16V267.5z" data-original="#D95354"/>
	<path style="fill:#D95354;" d="M37.16,299.5h16v16h-16V299.5z" data-original="#D95354"/>
</g><path style="fill:#A33327" d="M69.16,139.5h16v16h-16V139.5z" data-original="#FF2904" class="" data-old_color="#FF2904"/><ellipse style="fill:#B3B3B3;" cx="330.12" cy="443.004" rx="58" ry="12.504" data-original="#B3B3B3"/><path style="fill:#454545;" d="M233.16,12.5h16v350h-16V12.5z" data-original="#454545" class=""/></g> </svg>
