<?xml version="1.0"?>
<svg xmlns="http://www.w3.org/2000/svg" xmlns:xlink="http://www.w3.org/1999/xlink" version="1.1" id="Capa_1" x="0px" y="0px" viewBox="0 0 512 512" style="enable-background:new 0 0 512 512;" xml:space="preserve" width="512px" height="512px" class=""><g><g>
	<g transform="translate(0 2)">
		<path style="fill:#607D8B;" d="M46.051,223.323h39.283v136.533H46.051c-11.295,0-20.451-9.156-20.451-20.451v-95.632    C25.6,232.48,34.756,223.323,46.051,223.323z" data-original="#607D8B" class=""/>
		<path style="fill:#C52828;" d="M358.4,501.467H153.6c0-30.464,39.083-55.637,89.6-59.221c4.181-0.342,8.448-0.512,12.8-0.512    C312.576,441.733,358.4,468.443,358.4,501.467z" data-original="#C52828" class=""/>
		<path style="fill:#A33327" d="M332.8,501.467H153.6c0-30.464,39.083-55.637,89.6-59.221    C293.717,445.829,332.8,471.003,332.8,501.467z" data-original="#F44335" class="active-path" data-old_color="#F44335"/>
		<path style="fill:#CFD8DC;" d="M153.6,223.323l26.635,26.635c4.801,4.801,11.312,7.498,18.102,7.498H230.4    c14.139,0,25.6,11.462,25.6,25.6c0,14.138-11.461,25.6-25.6,25.6h-49.129c-6.79,0-13.301-2.697-18.102-7.498l-77.835-77.835H153.6    z" data-original="#CFD8DC" class=""/>
		<path style="fill:#607D8B;" d="M256,283.099c-0.021,14.13-11.47,25.579-25.6,25.6h-25.6c14.138,0,25.6-11.461,25.6-25.6    s-11.462-25.6-25.6-25.6l25.6,0c6.792-0.009,13.309,2.685,18.112,7.488C253.315,269.79,256.009,276.306,256,283.099z" data-original="#607D8B" class=""/>
		<g>
			<path style="fill:#CFD8DC;" d="M153.6,358.363v112.469c-0.016,16.912-13.722,30.618-30.635,30.635h-6.997     c-16.912-0.016-30.618-13.722-30.635-30.635V358.363H153.6z" data-original="#CFD8DC" class=""/>
			<polygon style="fill:#CFD8DC;" points="153.6,291.632 153.6,358.363 85.333,358.363 85.333,223.365    " data-original="#CFD8DC" class=""/>
		</g>
		<path style="fill:#00695C;" d="M452.267,65.584h-59.733V31.451c-0.197-4.52-4.012-8.03-8.533-7.851H264.533    c-4.521-0.18-8.336,3.33-8.533,7.851v61.099c0.197,4.52,4.012,8.03,8.533,7.851H332.8v42.667c-0.02,2.371,0.973,4.638,2.731,6.229    c1.567,1.483,3.645,2.308,5.803,2.304h110.933c4.707-0.014,8.519-3.826,8.533-8.533V74.117    C460.786,69.41,456.974,65.598,452.267,65.584z" data-original="#00695C" class=""/>
		<path style="fill:#009688;" d="M392.533,31.451V100.4h-128c-4.521,0.179-8.336-3.33-8.533-7.851V31.451    c0.197-4.52,4.012-8.03,8.533-7.851H384C388.521,23.42,392.336,26.93,392.533,31.451z" data-original="#009688" class=""/>
		<path style="fill:#00695C;" d="M460.8,74.117v68.949c-0.014,4.707-3.826,8.519-8.533,8.533H341.333    c-2.158,0.004-4.235-0.821-5.803-2.304l57.003-48.896V65.584h59.733C456.974,65.598,460.786,69.41,460.8,74.117z" data-original="#00695C" class=""/>
		<path style="fill:#009688;" d="M435.2,74.117v68.949c-0.014,4.707-3.826,8.519-8.533,8.533h-85.333    c-2.158,0.004-4.235-0.821-5.803-2.304l57.003-48.896V65.584h34.133C431.374,65.598,435.186,69.41,435.2,74.117z" data-original="#009688" class=""/>
		<path style="fill:#CFD8DC;" d="M196.267,145.883c0.002,20.757-8.396,40.631-23.28,55.098    c-14.885,14.467-34.99,22.295-55.738,21.702c-40.51-1.598-72.984-34.071-74.581-74.581c-1.194-41.472,30.776-76.389,72.192-78.848    c1.536-0.085,3.072-0.171,4.608-0.171v59.733c-0.001,4.527,1.796,8.868,4.997,12.069s7.543,4.999,12.069,4.997H196.267z" data-original="#CFD8DC" class=""/>
		<path style="fill:#00BCD4;" d="M119.467,69.111v59.733c0,9.426,7.641,17.067,17.067,17.067h59.733    C196.267,103.496,161.882,69.111,119.467,69.111z" data-original="#00BCD4" class=""/>
		<path style="fill:#41767F;" d="M503.467,510H8.533C3.821,510,0,506.18,0,501.467c0-4.713,3.821-8.533,8.533-8.533h494.933    c4.713,0,8.533,3.821,8.533,8.533C512,506.18,508.18,510,503.467,510z" data-original="#41767F"/>
		<path style="fill:#00838F;" d="M187.733,143.067c0,0.939,0,1.877-0.085,2.816h-17.067c0.085-0.939,0.085-1.877,0.085-2.816    c0.03-32.546-20.5-61.56-51.2-72.363v-1.621c-1.536,0-3.072,0.085-4.608,0.171c-4.065-1.217-8.237-2.046-12.459-2.475    c2.831-0.343,5.681-0.514,8.533-0.512C153.347,66.27,187.73,100.653,187.733,143.067z" data-original="#00838F"/>
		<g>
			<path style="fill:#607D8B;" d="M119.467,70.704c-1.497-0.599-3.038-1.084-4.608-1.451c1.536-0.085,3.072-0.171,4.608-0.171     V70.704z" data-original="#607D8B" class=""/>
			<path style="fill:#607D8B;" d="M196.267,145.883c0,56.917-43.861,73.984-85.333,73.984c-2.852,0.002-5.702-0.169-8.533-0.512     c37.794-4.211,66.801-35.469,68.181-73.472H196.267z" data-original="#607D8B" class=""/>
		</g>
	</g>
	<path d="M503.467,494.933H366.019c-6.307-32.388-48.043-57.075-101.485-59.476V110.933h59.733v34.133   c0.011,9.421,7.645,17.056,17.067,17.067h110.933c9.421-0.011,17.056-7.645,17.067-17.067V76.142   c-0.011-9.421-7.645-17.056-17.067-17.067h-51.2v-25.6C400.87,24.238,393.238,16.9,384,17.067H264.533V8.533   C264.533,3.821,260.713,0,256,0c-4.713,0-8.533,3.821-8.533,8.533v247.139c-5.165-3.074-11.056-4.713-17.067-4.747h-32.067   c-4.524-0.012-8.86-1.809-12.067-5l-23.776-23.776c5.97-3.471,11.5-7.651,16.468-12.449c22.057-21.451,30.857-53.116,23.033-82.872   c-7.824-29.756-31.062-52.996-60.817-60.823S79.753,66.975,58.3,89.029c-16.141,16.488-24.857,38.847-24.133,61.908   c0.969,26.111,13.791,50.356,34.827,65.854H46.05c-16,0.017-28.967,12.983-28.983,28.983v95.629   c0.016,16.001,12.982,28.969,28.983,28.988H76.8v102.4c-0.002,7.91,2.405,15.633,6.899,22.141H8.533   c-4.713,0-8.533,3.821-8.533,8.533C0,508.18,3.821,512,8.533,512h494.933c4.713,0,8.533-3.82,8.533-8.533   C512,498.754,508.18,494.933,503.467,494.933z M162.133,466.714V313.282c5.65,3.826,12.31,5.883,19.133,5.909H230.4   c6.01-0.034,11.902-1.673,17.067-4.747v121.013C211.111,437.091,180.203,449.031,162.133,466.714z M93.867,245.925l51.2,51.2   v54.713h-51.2V245.925z M369.483,110.933l-28.15,24.146v-24.146H369.483z M452.267,76.142v68.925h-96.365l42.19-36.192   c0.096-0.083,0.15-0.196,0.242-0.283c0.683-0.742,1.278-1.561,1.772-2.44c0.147-0.293,0.276-0.595,0.386-0.904   c0.265-0.749,0.423-1.532,0.469-2.326c0.011-0.182,0.105-0.337,0.105-0.523V76.142H452.267z M384,33.475v60.392h-51.2   c-0.532,0.053-1.056,0.159-1.567,0.316l-66.699,0.342V34.133L384,33.475z M198.333,267.992H230.4   c9.426,0,17.067,7.641,17.067,17.067s-7.641,17.067-17.067,17.067h-49.133c-4.524-0.012-8.86-1.809-12.067-5l-9.567-9.567   l-53.7-53.7h44.133l24.133,24.133C180.614,264.372,189.286,267.965,198.333,267.992z M187.2,139.992h-50.667   c-4.711-0.005-8.529-3.822-8.533-8.533V80.787C158.916,84.732,183.258,109.075,187.2,139.992z M51.233,150.462   c-0.991-35.128,24.836-65.273,59.7-69.683v50.679c0.015,14.132,11.468,25.585,25.6,25.6h50.675   c-4.403,34.868-34.552,60.7-69.683,59.704C81.516,215.339,52.652,186.472,51.233,150.462L51.233,150.462z M34.133,341.404v-95.629   c0.006-6.579,5.338-11.911,11.917-11.917H76.8v119.467H46.05C39.47,353.319,34.138,347.984,34.133,341.404z M116.008,494.933   c-12.223-0.014-22.127-9.919-22.142-22.142V368.905h51.2v103.887c-0.014,12.223-9.919,22.127-22.142,22.142H116.008z    M163.5,494.933c7.7-23.863,46.933-42.667,92.5-42.667s84.8,18.804,92.5,42.667H163.5z" data-original="#000000" class=""/>
</g></g> </svg>
