<?xml version="1.0" encoding="iso-8859-1"?>
<!-- Generator: Adobe Illustrator 19.0.0, SVG Export Plug-In . SVG Version: 6.00 Build 0)  -->
<svg version="1.1" id="Capa_1" xmlns="http://www.w3.org/2000/svg" xmlns:xlink="http://www.w3.org/1999/xlink" x="0px" y="0px"
	 viewBox="0 0 480 480" style="enable-background:new 0 0 480 480;" xml:space="preserve">
<g>
	<path style="fill:#168DE2;" d="M444,57.376h-16c0-8.837-7.163-16-16-16v-16c8.837,0,16-7.163,16-16h16c0,8.837,7.163,16,16,16v16
		C451.163,41.376,444,48.539,444,57.376z M433.144,33.376c1.015,0.887,1.969,1.841,2.856,2.856c0.887-1.015,1.841-1.969,2.856-2.856
		c-1.015-0.887-1.969-1.841-2.856-2.856C435.113,31.535,434.159,32.489,433.144,33.376z"/>
	<circle style="fill:#168DE2;" cx="316" cy="253.376" r="20"/>
</g>
<path style="fill:#D3D3D3;" d="M240,281.376c-41.368,0-85.336-14.016-85.336-40s44-40,85.336-40c38.608,0,71.44,11.2,81.688,27.928
	l-13.6,8.368c-6.08-9.84-31.976-20.296-68.088-20.296c-42.328,0-69.336,14.216-69.336,24c0,9.784,27.008,24,69.336,24
	c18.783,0.465,37.454-3.015,54.808-10.216l6.856,14.448C282.167,277.827,261.154,281.837,240,281.376L240,281.376z"/>
<circle style="fill:#DB8F35;" cx="144" cy="297.376" r="32"/>
<path style="fill:#D3D3D3;" d="M240,329.376c-23.699,0.305-47.282-3.35-69.776-10.816l5.256-15.12
	c20.803,6.884,42.61,10.243,64.52,9.936c71.2,0,120.888-29.6,120.888-72s-49.688-72-120.888-72s-120.888,29.6-120.888,72
	c0.005,10.337,3.1,20.436,8.888,29l-13.344,8.8c-7.528-11.168-11.548-24.331-11.544-37.8c0-51.816,56.288-88,136.888-88
	s136.888,36.184,136.888,88S320.6,329.376,240,329.376z"/>
<circle style="fill:#D95354;" cx="408" cy="289.376" r="32"/>
<g>
	<path style="fill:#D3D3D3;" d="M426.688,260.68l-15.784-2.608c0.974-5.513,1.491-11.098,1.544-16.696
		c0-37.424-20.048-70.056-56.448-91.888l8.232-13.712c41.408,24.8,64.216,62.344,64.216,105.6
		C428.4,247.848,427.811,254.306,426.688,260.68L426.688,260.68z"/>
	<path style="fill:#D3D3D3;" d="M240,377.376c-110.952,0-188.448-55.928-188.448-136c-0.002-4.967,0.308-9.928,0.928-14.856
		l15.872,2c-0.534,4.265-0.801,8.558-0.8,12.856c0,70.656,70.92,120,172.448,120c61.424,0,114.088-18.528,144.488-50.832
		l11.656,10.96C362.728,357.016,305.824,377.376,240,377.376z"/>
	<path style="fill:#D3D3D3;" d="M72.36,210.552l-15.2-4.944C77.248,143.776,147.32,105.376,240,105.376
		c37.78-0.686,75.24,7.022,109.68,22.568l-6.92,14.4c-32.281-14.502-67.378-21.663-102.76-20.968
		C155.784,121.376,89.976,156.376,72.36,210.552L72.36,210.552z"/>
</g>
<circle style="fill:#FFCB5A;" cx="124" cy="85.376" r="28"/>
<path style="fill:#D3D3D3;" d="M240,425.376c-139.064,0-240-77.384-240-184c0-61.872,34.824-116.512,95.528-149.92l7.72,14.016
	C47.8,135.976,16,185.52,16,241.376c0,97.344,94.2,168,224,168s224-70.656,224-168s-94.2-168-224-168
	c-29.426-0.172-58.73,3.8-87.048,11.8l-4.44-15.368c29.76-8.422,60.559-12.607,91.488-12.432c139.064,0,240,77.384,240,184
	S379.064,425.376,240,425.376z"/>
<path style="fill:#D95354;" d="M76.687,72.658l6.621-14.566l88,40l-6.621,14.566L76.687,72.658z"/>
<g>
	<path style="fill:#FFB546;" d="M26.296,406.624h16v16h-16V406.624z"/>
	<path style="fill:#FFB546;" d="M26.296,454.624h16v16h-16V454.624z"/>
	<path style="fill:#FFB546;" d="M6.036,421.658l11.31-11.318l11.318,11.31l-11.31,11.318L6.036,421.658z"/>
	<path style="fill:#FFB546;" d="M39.944,455.587l11.314-11.314l11.314,11.314l-11.314,11.314L39.944,455.587z"/>
	<path style="fill:#FFB546;" d="M2.296,430.624h16v16h-16L2.296,430.624z"/>
	<path style="fill:#FFB546;" d="M50.296,430.624h16v16h-16V430.624z"/>
	<path style="fill:#FFB546;" d="M5.992,455.627l11.318-11.31l11.31,11.318l-11.318,11.31L5.992,455.627z"/>
	<path style="fill:#FFB546;" d="M39.947,421.655l11.314-11.314l11.314,11.314l-11.314,11.314L39.947,421.655z"/>
</g>
<circle style="fill:#FF4E31;" cx="240" cy="241.376" r="32"/>
<g>
</g>
<g>
</g>
<g>
</g>
<g>
</g>
<g>
</g>
<g>
</g>
<g>
</g>
<g>
</g>
<g>
</g>
<g>
</g>
<g>
</g>
<g>
</g>
<g>
</g>
<g>
</g>
<g>
</g>
</svg>
